<svg width="39.806" height="46.104" viewBox="0 0 39.806 46.104" xmlns="http://www.w3.org/2000/svg"><g id="svgGroup" stroke-linecap="round" fill-rule="evenodd" font-size="9pt" stroke="#ffffff" stroke-width="0" fill="#000000" style="stroke:#ffffff;stroke-width:0;fill:#000000"><path d="M 21.106 14.969 L 21.606 15.419 L 22.956 15.119 Q 24.306 14.769 25.206 14.619 Q 25.706 14.569 25.881 14.444 Q 26.056 14.319 26.106 13.919 Q 26.206 13.419 26.731 12.869 Q 27.256 12.319 27.656 12.319 Q 28.006 12.319 28.506 12.719 Q 29.456 13.419 30.131 13.594 A 4.062 4.062 0 0 0 31.112 13.688 A 13.145 13.145 0 0 0 32.356 13.619 Q 34.456 13.469 34.556 13.369 A 7.162 7.162 0 0 1 36.394 13.221 A 43.266 43.266 0 0 1 36.856 13.219 A 9.107 9.107 0 0 1 38.98 13.357 A 0.325 0.325 0 0 1 39.056 13.394 Q 39.306 13.569 39.531 14.369 Q 39.756 15.169 39.806 15.869 Q 39.806 16.419 39.181 16.994 Q 38.556 17.569 37.956 17.569 A 0.473 0.473 0 0 0 37.356 17.819 A 0.716 0.716 0 0 1 36.663 17.975 A 13.396 13.396 0 0 1 35.581 17.919 Q 33.806 17.769 32.356 17.869 L 30.956 18.069 L 30.806 20.069 L 30.556 23.219 Q 30.506 24.319 30.406 28.119 Q 30.306 31.919 30.206 32.069 Q 30.106 32.219 30.081 36.044 Q 30.056 39.869 29.781 40.419 Q 29.506 40.969 29.506 41.969 Q 29.506 43.469 28.506 44.944 A 2.113 2.113 0 0 1 27.15 46.104 A 0.551 0.551 0 0 1 26.856 46.019 Q 26.506 45.869 26.331 45.394 A 7.584 7.584 0 0 1 26.188 43.925 A 107.212 107.212 0 0 1 26.106 40.469 Q 26.056 36.019 26.006 34.794 A 500.267 500.267 0 0 1 25.924 32.54 Q 25.847 30.331 25.706 26.169 L 25.556 18.719 L 24.706 18.869 Q 23.756 18.969 22.931 19.269 Q 22.106 19.569 21.806 19.569 Q 20.956 19.569 20.406 22.469 Q 19.956 24.619 19.006 27.519 Q 18.906 27.969 18.806 28.069 Q 18.656 28.169 18.206 28.844 Q 17.756 29.519 17.756 29.569 Q 17.756 29.819 16.056 31.619 Q 14.806 32.869 12.756 33.919 A 14.397 14.397 0 0 1 10.714 34.814 Q 10.305 34.931 10.305 34.784 A 0.121 0.121 0 0 1 10.306 34.769 Q 10.306 34.619 10.706 34.169 Q 12.206 32.569 13.631 30.194 Q 15.056 27.819 15.556 26.219 Q 16.256 23.769 16.556 21.119 Q 16.756 19.669 16.856 19.169 Q 16.956 18.669 17.056 16.569 Q 17.156 14.469 17.406 12.919 Q 17.556 11.969 17.656 11.644 Q 17.756 11.319 18.156 11.069 A 1.172 1.172 0 0 1 18.734 10.869 A 0.49 0.49 0 0 1 18.956 10.919 Q 20.006 11.519 20.006 12.119 Q 20.006 12.619 20.281 13.119 Q 20.556 13.619 20.581 14.044 Q 20.606 14.469 21.106 14.969 Z M 12.106 21.269 L 11.356 22.069 L 8.706 22.169 A 13.776 13.776 0 0 0 5.088 22.509 A 3.398 3.398 0 0 0 4.906 22.569 Q 3.806 22.969 3.806 24.019 Q 3.806 24.419 3.556 24.519 A 0.49 0.49 0 0 1 3.334 24.566 A 1.624 1.624 0 0 1 2.631 24.344 Q 2.006 24.019 2.006 23.719 Q 2.006 23.419 1.706 22.969 Q 1.406 22.519 1.231 21.219 Q 1.056 19.919 0.756 18.469 Q 0.006 14.969 0.006 12.419 Q 0.006 11.069 0.081 10.744 Q 0.156 10.419 0.556 10.119 Q 1.106 9.719 1.381 9.719 Q 1.656 9.719 2.056 9.369 A 16.519 16.519 0 0 1 4.933 8.302 A 56.193 56.193 0 0 1 5.556 8.119 A 13.394 13.394 0 0 1 7.91 7.973 A 48.808 48.808 0 0 1 9.256 7.994 A 16.138 16.138 0 0 1 12.163 8.248 A 1.48 1.48 0 0 1 12.506 8.369 Q 13.006 8.619 14.131 8.969 Q 15.256 9.319 15.506 9.544 A 0.969 0.969 0 0 1 15.734 10.284 A 2.762 2.762 0 0 1 15.731 10.394 Q 15.706 11.019 15.406 11.419 Q 15.156 11.769 15.156 12.269 Q 15.156 12.719 14.756 13.819 Q 14.356 14.919 13.906 15.669 Q 12.865 17.461 12.865 18.349 A 1.132 1.132 0 0 0 12.906 18.669 Q 13.406 19.919 12.106 21.269 Z M 26.906 0.369 Q 27.306 0.069 27.981 0.019 A 2.466 2.466 0 0 1 28.163 0.012 A 0.6 0.6 0 0 1 28.781 0.269 Q 28.906 0.569 29.856 1.169 Q 30.906 1.869 31.106 2.169 Q 31.306 2.469 31.006 3.019 Q 30.706 3.619 30.706 4.219 Q 30.706 4.819 30.206 5.244 A 1.326 1.326 0 0 1 29.331 5.588 A 1.367 1.367 0 0 1 29.106 5.569 A 0.665 0.665 0 0 0 28.946 5.552 Q 28.422 5.552 27.171 6.124 A 23.61 23.61 0 0 0 26.256 6.569 Q 24.006 7.719 23.456 8.019 Q 22.556 8.619 20.931 9.244 Q 19.306 9.869 18.656 9.869 Q 18.206 9.869 18.106 9.369 Q 18.056 9.119 18.256 8.844 Q 18.456 8.569 19.256 8.069 A 29.897 29.897 0 0 0 21.488 6.114 A 103.054 103.054 0 0 0 22.556 5.094 A 37.313 37.313 0 0 0 25.439 2.064 A 9.902 9.902 0 0 0 25.706 1.719 Q 26.556 0.719 26.906 0.369 Z M 10.156 10.519 Q 9.756 10.319 8.781 10.269 Q 7.806 10.219 6.956 10.369 A 23.93 23.93 0 0 0 3.733 11.109 A 2.558 2.558 0 0 0 3.256 11.319 Q 3.023 11.452 3.023 13.008 A 38.185 38.185 0 0 0 3.081 14.919 A 23.285 23.285 0 0 0 3.428 18.294 A 2.318 2.318 0 0 0 3.656 18.969 A 0.316 0.316 0 0 0 3.975 19.082 A 4.476 4.476 0 0 0 4.956 18.919 Q 6.156 18.619 6.481 18.619 Q 6.806 18.619 7.731 17.844 Q 8.656 17.069 8.881 16.244 Q 9.106 15.419 9.656 13.769 A 36.768 36.768 0 0 0 10.304 11.368 A 3.031 3.031 0 0 0 10.331 11.219 A 1.454 1.454 0 0 0 10.349 11.004 A 0.584 0.584 0 0 0 10.156 10.519 Z"/></g></svg>