<svg width="37.491" height="42.491" viewBox="0 0 37.491 42.491" xmlns="http://www.w3.org/2000/svg"><g id="svgGroup" stroke-linecap="round" fill-rule="evenodd" font-size="9pt" stroke="#000000" stroke-width="0.25mm" fill="#000000" style="stroke:#000000;stroke-width:0.25mm;fill:#000000"><path d="M 19.57 42.47 L 11.47 42.47 Q 9.17 42.47 9.17 40.17 L 9.17 16.12 L 2.32 16.12 Q 0.02 16.12 0.02 13.82 L 0.02 7.77 Q 0.02 6.52 0.72 5.92 L 7.17 0.47 Q 7.72 0.02 8.77 0.02 L 35.17 0.02 Q 37.47 0.02 37.47 2.32 L 37.47 8.37 Q 37.47 9.62 36.77 10.22 L 30.27 15.62 Q 29.77 16.12 28.72 16.12 L 28.32 16.12 L 28.32 34.72 Q 28.32 35.97 27.62 36.57 L 21.12 41.97 Q 20.62 42.47 19.57 42.47 Z M 17.92 36.52 L 26.02 36.52 Q 27.82 36.52 27.82 34.72 L 27.82 10.17 L 35.17 10.17 Q 36.97 10.17 36.97 8.37 L 36.97 2.32 Q 36.97 0.52 35.17 0.52 L 8.77 0.52 Q 6.97 0.52 6.97 2.32 L 6.97 8.37 Q 6.97 10.17 8.77 10.17 L 16.12 10.17 L 16.12 34.72 Q 16.12 36.52 17.92 36.52 Z M 22.22 32.02 L 21.72 32.02 L 21.72 5.52 L 11.47 5.52 L 11.47 5.02 L 32.47 5.02 L 32.47 5.52 L 22.22 5.52 L 22.22 32.02 Z"/></g></svg>