<svg width="138.002" height="49.803" viewBox="0 0 138.002 49.803" xmlns="http://www.w3.org/2000/svg"><g id="svgGroup" stroke-linecap="round" fill-rule="evenodd" font-size="9pt" stroke="#000000" stroke-width="0.5mm" fill="#ffffff" style="stroke:#000000;stroke-width:0.5mm;fill:#ffffff"><path d="M 57.451 23.6 L 57.351 23.6 Q 54.851 27.65 52.701 32.075 Q 50.551 36.5 48.701 41.3 Q 46.001 41.3 44.501 39.45 Q 42.951 38.75 42.226 37.375 Q 41.501 36 41.501 34.45 Q 41.501 29.85 42.051 24.3 Q 42.601 18.75 43.901 12.75 Q 44.051 11.8 44.951 11.8 Q 46.301 11.8 47.501 12.425 Q 48.701 13.05 49.451 14.2 Q 50.201 15.35 50.201 16.9 L 50.201 17.45 Q 50.201 17.75 50.101 18.05 L 47.601 30.95 L 47.701 30.95 Q 48.951 28.1 50.226 25.275 Q 51.501 22.45 52.826 20.125 Q 54.151 17.8 55.601 16.375 Q 57.051 14.95 58.601 14.95 Q 59.851 14.95 61.251 16.25 Q 62.651 16.65 63.376 17.575 Q 64.101 18.5 64.101 19.6 L 64.101 19.9 Q 64.101 20.05 64.051 20.2 Q 63.851 21.3 63.601 23.275 Q 63.351 25.25 63.126 27.725 Q 62.901 30.2 62.751 32.875 Q 62.601 35.55 62.601 38.05 Q 62.601 38.85 62.676 39.65 Q 62.751 40.45 62.851 41.15 Q 62.101 41.45 61.351 41.45 Q 58.001 41.45 56.726 39.5 Q 55.451 37.55 55.451 34.5 Q 55.451 32.15 56.051 29.325 Q 56.651 26.5 57.451 23.6 Z M 91.301 17.3 L 90.151 33.25 A 37.557 37.557 0 0 1 88.884 41.06 A 18.226 18.226 0 0 1 88.126 43.175 Q 86.551 46.8 84.201 48.3 Q 81.851 49.8 78.951 49.8 Q 75.351 49.8 72.626 48.875 Q 69.901 47.95 68.376 46.575 Q 66.851 45.2 66.851 43.8 Q 66.851 42.3 67.526 41.6 Q 68.201 40.9 69.201 40.85 Q 71.151 42.55 72.726 43.3 A 8.844 8.844 0 0 0 76.551 44.05 Q 79.001 44.05 80.301 42.675 Q 81.601 41.3 81.951 37.8 Q 81.951 37.6 82.001 37.45 Q 80.651 38.6 79.326 39.125 Q 78.001 39.65 77.001 39.65 Q 75.401 39.65 73.601 38.575 Q 71.801 37.5 70.551 35.4 Q 68.701 33.95 67.826 32.025 Q 66.951 30.1 66.951 28.15 Q 66.951 24.9 67.851 21.925 Q 68.751 18.95 70.326 16.6 Q 71.901 14.25 73.976 12.9 Q 76.051 11.55 78.401 11.55 Q 81.151 11.55 84.001 13.95 Q 84.051 12.9 84.151 11.8 Q 84.201 11.35 84.551 11.075 Q 84.901 10.8 85.351 10.8 Q 86.901 10.8 88.301 11.65 Q 89.701 12.5 90.576 13.95 Q 91.451 15.4 91.301 17.3 Z M 125.451 41.45 Q 121.901 41.45 119.651 39.75 Q 117.401 38.05 116.351 35.35 Q 115.301 32.65 115.301 29.7 Q 115.301 27.15 115.476 24.25 Q 115.651 21.35 115.926 18.55 Q 116.201 15.75 116.401 13.5 Q 116.501 12.35 116.951 12.075 A 2.284 2.284 0 0 1 118.151 11.8 Q 119.301 11.8 120.626 12.4 Q 121.951 13 122.926 13.95 Q 123.901 14.9 123.901 15.95 Q 123.901 16.25 123.751 17.775 Q 123.601 19.3 123.376 21.45 Q 123.151 23.6 123.001 25.825 Q 122.851 28.05 122.851 29.7 A 7.735 7.735 0 0 0 123.629 33.673 A 2.036 2.036 0 0 0 125.451 34.7 Q 126.901 34.7 127.826 32.9 Q 128.751 31.1 129.351 28.125 Q 129.951 25.15 130.301 21.5 Q 130.651 17.85 130.851 14.15 Q 130.901 13.4 131.401 13.225 Q 131.901 13.05 132.251 13.05 Q 133.301 13.05 134.651 13.825 Q 136.001 14.6 137.001 15.925 Q 138.001 17.25 138.001 19 Q 138.001 22.2 137.626 25.4 Q 137.251 28.6 136.401 31.475 Q 135.551 34.35 134.126 36.6 Q 132.701 38.85 130.551 40.15 Q 128.401 41.45 125.451 41.45 Z M 102.701 41.45 Q 101.601 41.45 100.501 40.775 Q 99.401 40.1 98.301 39.1 Q 97.201 38.1 96.051 37.05 Q 94.901 36 93.651 35.3 Q 93.001 34.95 93.001 34.3 Q 93.001 32.85 94.101 32.1 Q 95.201 31.35 96.551 31.35 Q 98.301 31.35 100.001 32.175 Q 101.701 33 103.151 34.15 Q 103.351 31.5 103.501 28.325 Q 103.651 25.15 103.776 21.85 Q 103.901 18.55 104.001 15.45 Q 104.101 12.35 104.151 9.9 Q 103.001 10.05 102.076 10.2 Q 101.151 10.35 100.251 10.35 Q 98.651 10.35 97.276 9.425 Q 95.901 8.5 95.076 7.225 Q 94.251 5.95 94.251 5 Q 94.251 4.2 95.201 4.2 Q 96.151 4.2 97.601 4.05 Q 99.051 3.9 100.626 3.775 Q 102.201 3.65 103.551 3.65 Q 105.051 3.65 106.776 4.25 Q 108.501 4.85 109.251 6 Q 110.851 6.6 111.351 7.4 Q 111.851 8.2 111.851 9.05 A 80.384 80.384 0 0 1 111.775 11.577 A 345.554 345.554 0 0 1 111.751 12.15 Q 111.651 14.55 111.476 17.95 Q 111.301 21.35 111.076 25.15 Q 110.851 28.95 110.601 32.5 Q 110.401 35.4 109.226 37.4 Q 108.051 39.4 106.326 40.425 Q 104.601 41.45 102.701 41.45 Z M 9.051 32.1 L 10.101 12.05 Q 9.301 12.15 8.526 12.175 Q 7.751 12.2 7.051 12.2 Q 5.201 12.2 3.576 11.25 Q 1.951 10.3 0.976 8.95 Q 0.001 7.6 0.001 6.4 Q 0.001 5.55 1.001 5.55 Q 1.601 5.55 3.251 5.4 Q 4.901 5.25 7.076 5.05 Q 9.251 4.85 11.476 4.65 Q 13.701 4.45 15.526 4.3 Q 17.351 4.15 18.201 4.15 Q 19.651 4.15 21.201 4.725 Q 22.751 5.3 24.076 6.225 Q 25.401 7.15 26.251 8.275 Q 27.101 9.4 27.101 10.45 Q 27.101 11 26.551 11 Q 26.051 11 25.651 10.975 Q 25.251 10.95 24.801 10.95 Q 23.101 10.95 21.351 11.05 Q 19.601 11.15 17.901 11.3 L 16.201 40.2 Q 16.151 40.9 15.826 41.175 Q 15.501 41.45 14.651 41.45 Q 13.451 41.45 12.051 40.6 Q 10.651 39.75 9.751 37.7 A 10.945 10.945 0 0 1 9.015 33.341 A 22.092 22.092 0 0 1 9.051 32.1 Z M 34.551 41.45 Q 33.251 41.45 31.826 40.95 Q 30.401 40.45 29.426 39.5 Q 28.451 38.55 28.451 37.2 Q 28.451 36.4 28.551 34.35 Q 28.651 32.3 28.801 29.575 Q 28.951 26.85 29.151 23.925 Q 29.351 21 29.601 18.35 Q 29.851 15.7 30.051 13.85 Q 30.101 13.45 30.551 13.325 Q 31.001 13.2 31.301 13.2 Q 32.451 13.2 33.851 13.85 Q 35.251 14.5 36.276 15.5 Q 37.301 16.5 37.301 17.6 Q 37.301 18.25 37.101 20.175 Q 36.901 22.1 36.626 24.75 Q 36.351 27.4 36.076 30.3 Q 35.801 33.2 35.601 35.925 Q 35.401 38.65 35.401 40.65 A 0.903 0.903 0 0 1 35.201 41.175 Q 35.001 41.45 34.551 41.45 Z M 74.101 31.5 Q 74.101 33.5 76.051 33.5 Q 76.851 33.5 78.126 33 Q 79.401 32.5 80.701 31.55 Q 82.001 30.6 82.751 29.25 L 83.251 23.75 Q 83.501 21 83.701 18.25 Q 82.201 16.9 80.751 16.9 Q 78.951 16.9 77.426 18.8 Q 75.901 20.7 75.001 23.975 Q 74.101 27.25 74.101 31.5 Z M 35.251 8.25 Q 33.601 8.25 32.226 7.875 Q 30.851 7.5 30.076 6.5 A 3.889 3.889 0 0 1 29.39 4.062 A 7.632 7.632 0 0 1 29.401 3.65 Q 29.501 2.7 29.676 1.575 Q 29.851 0.45 30.951 0.2 Q 31.551 0.1 32.401 0.05 Q 33.251 0 33.901 0 Q 35.301 0 37.001 0.45 Q 37.851 0.65 37.851 1.1 Q 37.851 2.25 37.501 3.8 Q 37.151 5.35 36.751 8.05 Q 35.951 8.25 35.251 8.25 Z"/></g></svg>